<?xml version="1.0" standalone="no"?>
<!DOCTYPE svg PUBLIC "-//W3C//DTD SVG 20010904//EN"
 "http://www.w3.org/TR/2001/REC-SVG-20010904/DTD/svg10.dtd">
<svg version="1.0" xmlns="http://www.w3.org/2000/svg"
 width="561.000000pt" height="561.000000pt" viewBox="0 0 561.000000 561.000000"
 preserveAspectRatio="xMidYMid meet">
<metadata>
Created by potrace 1.14, written by Peter Selinger 2001-2017
</metadata>
<g transform="translate(0.000000,561.000000) scale(0.100000,-0.100000)"
fill="#000000" stroke="none">
<path d="M2705 4385 c-106 -25 -173 -75 -380 -283 -522 -525 -666 -672 -690
-711 -44 -71 -67 -148 -66 -226 0 -38 2 -77 4 -85 23 -92 35 -112 137 -224
175 -194 798 -817 858 -858 92 -63 215 -86 314 -56 113 32 226 115 382 277 61
63 167 169 235 236 349 338 378 369 449 488 67 113 89 210 67 302 -15 66 -48
130 -91 180 -61 69 -238 246 -257 256 -14 8 -26 5 -50 -14 -53 -41 -89 -77
-85 -87 2 -5 57 -64 123 -132 130 -134 171 -197 181 -275 11 -92 4 -101 -442
-549 -225 -226 -431 -427 -458 -448 -112 -85 -183 -86 -291 -3 -22 17 -223
216 -447 441 -280 282 -414 424 -428 453 -26 56 -26 131 1 187 14 31 106 129
305 327 157 156 340 340 407 408 67 68 133 135 147 149 37 37 105 64 165 64
75 1 136 -32 228 -124 42 -43 82 -78 88 -78 15 0 64 48 95 92 l26 36 -59 55
c-32 31 -71 66 -88 78 -16 13 -32 26 -35 29 -9 10 -83 54 -121 71 -73 33 -151
42 -224 24z"/>
<path d="M3564 4140 c-44 -9 -85 -19 -91 -23 -6 -4 -28 -9 -49 -12 -21 -2 -41
-8 -45 -12 -5 -5 5 -28 21 -52 17 -24 30 -51 30 -60 0 -19 -96 -113 -235 -231
-55 -47 -131 -114 -169 -150 -37 -36 -75 -64 -84 -62 -8 2 -32 14 -52 27 -21
13 -54 31 -75 39 l-36 16 -87 -83 c-240 -230 -453 -446 -471 -479 -17 -31 -18
-37 -5 -42 30 -11 60 -6 80 14 58 60 68 69 73 64 3 -2 6 -69 6 -147 1 -80 7
-154 13 -169 14 -34 44 -42 130 -34 37 3 70 6 74 6 4 0 7 8 7 18 1 91 -1 354
-2 417 -3 96 9 155 37 188 23 26 65 52 72 44 3 -3 8 -137 10 -298 3 -162 6
-311 6 -332 1 -21 5 -40 9 -43 4 -2 44 -5 88 -6 60 -1 86 3 105 16 30 19 29
17 26 206 -6 285 -3 384 13 420 18 41 41 65 77 78 l26 10 0 -354 c1 -195 4
-357 7 -360 3 -3 50 -6 104 -7 l98 -1 2 35 c1 18 4 187 7 374 3 187 6 393 7
457 l2 117 46 48 c75 77 157 143 167 134 15 -15 86 -52 90 -48 3 2 6 13 8 23
2 11 12 46 22 79 10 33 19 62 19 65 1 3 4 12 8 20 6 16 27 92 27 100 0 9 -32
6 -116 -10z"/>
<path d="M1619 1808 c-14 -5 -31 -19 -37 -31 -10 -21 -51 -153 -56 -180 -1 -7
-7 -28 -13 -47 -31 -101 -45 -151 -42 -155 2 -2 21 -5 43 -6 37 -4 39 -2 55
37 16 40 17 40 72 43 l57 2 9 -38 c8 -37 10 -38 56 -41 50 -3 58 7 38 46 -7
13 -31 91 -36 122 -3 12 -37 126 -42 140 -3 8 -7 20 -8 26 -14 62 -54 97 -96
82z m39 -194 c17 -59 16 -64 -18 -64 -34 0 -36 8 -19 76 13 51 20 48 37 -12z"/>
<path d="M2649 1816 c-2 -2 -23 -6 -46 -10 -130 -17 -209 -132 -180 -261 16
-71 85 -137 159 -154 31 -6 66 -10 79 -7 13 3 34 7 46 10 42 9 101 57 126 104
35 64 33 152 -5 209 -29 44 -91 90 -130 97 -15 2 -32 7 -36 10 -5 3 -11 4 -13
2z m13 -92 c22 -3 49 -17 67 -35 114 -108 -29 -283 -163 -199 -36 21 -67 82
-61 116 2 10 4 25 4 32 1 18 77 89 98 90 10 0 35 -2 55 -4z"/>
<path d="M4094 1812 c-12 -2 -29 -11 -38 -21 -12 -14 -60 -156 -81 -241 -2 -8
-12 -48 -24 -88 l-20 -73 47 3 c44 3 48 5 58 38 11 34 13 35 67 38 l56 3 11
-41 c11 -40 11 -40 60 -40 l49 0 -14 43 c-7 23 -23 76 -35 117 -11 41 -25 85
-31 98 -5 13 -9 30 -9 38 0 27 -40 109 -58 120 -9 5 -27 8 -38 6z m39 -254
c-2 -5 -17 -8 -34 -8 -33 0 -33 0 -18 55 18 71 21 72 39 15 9 -30 15 -58 13
-62z"/>
<path d="M4665 1813 c-102 -18 -143 -66 -136 -164 2 -29 57 -76 104 -87 44
-11 77 -34 77 -52 0 -12 -29 -40 -43 -41 -7 -1 -19 -2 -27 -3 -8 -1 -24 1 -35
5 -70 22 -70 22 -72 -26 -2 -41 -1 -44 30 -51 137 -32 234 20 230 122 -2 56
-32 99 -81 114 -79 24 -92 32 -92 54 0 12 5 27 12 34 15 15 94 16 103 2 12
-20 25 1 25 40 0 35 -3 40 -27 46 -16 3 -32 7 -38 8 -5 1 -19 1 -30 -1z"/>
<path d="M952 1802 c-41 -6 -49 -43 -48 -232 l1 -175 45 -3 46 -3 -2 86 c-2
48 1 85 7 85 5 0 9 -4 9 -9 0 -4 11 -6 25 -3 40 7 53 -12 53 -76 0 -31 0 -63
1 -70 1 -9 14 -12 44 -10 l42 3 1 84 c0 70 -3 88 -18 103 -18 18 -18 21 -3 45
10 14 17 44 17 67 -1 34 -7 47 -36 74 -20 17 -44 32 -53 33 -62 4 -111 4 -131
1z m121 -100 c10 -10 14 -22 10 -26 -5 -4 -8 -13 -8 -19 0 -6 -19 -17 -42 -23
l-43 -13 2 42 c0 23 3 45 5 50 8 14 60 7 76 -11z"/>
<path d="M1277 1797 c-37 -12 -44 -45 -45 -211 0 -143 1 -150 23 -172 22 -21
33 -24 108 -24 l84 0 1 40 c1 22 -3 40 -8 41 -6 1 -34 2 -62 2 l-53 2 0 45 0
45 50 0 c65 1 74 7 66 47 -6 31 -9 33 -52 34 -57 0 -69 8 -69 45 0 27 2 29 43
30 23 1 52 0 63 0 19 -2 22 3 20 41 l-1 42 -71 1 c-40 0 -83 -3 -97 -8z"/>
<path d="M1840 1786 c-4 -11 -5 -25 -3 -29 3 -5 5 -77 5 -159 0 -86 4 -161 10
-174 13 -28 48 -36 138 -32 l65 3 2 38 c0 22 -4 37 -10 38 -7 0 -34 1 -62 2
l-50 2 -5 164 -5 165 -38 2 c-31 1 -40 -3 -47 -20z"/>
<path d="M2295 1802 c-3 -3 -5 -72 -5 -153 0 -159 -6 -179 -55 -179 -23 0 -35
-26 -27 -62 8 -39 114 -12 150 39 18 26 20 44 21 191 1 89 -2 162 -6 163 -41
4 -74 5 -78 1z"/>
<path d="M2901 1791 c-11 -23 -6 -291 7 -323 15 -37 74 -79 120 -85 72 -10
148 33 169 93 5 16 9 96 9 179 l-1 150 -42 0 c-36 0 -43 -3 -44 -20 0 -11 0
-77 0 -147 -1 -104 -4 -131 -17 -148 -24 -29 -62 -33 -91 -11 -24 18 -25 23
-27 162 -1 79 -2 149 -3 154 -2 17 -71 13 -80 -4z"/>
<path d="M3297 1794 c-13 -7 -26 -21 -29 -31 -2 -10 -4 -97 -3 -193 l0 -175
45 0 45 0 -1 82 c0 81 0 82 23 78 80 -17 73 -8 73 -90 l0 -75 46 0 45 0 -2 86
c-1 70 -5 90 -21 106 -17 17 -17 20 -3 41 36 55 19 128 -36 161 -37 22 -147
28 -182 10z m129 -82 c37 -25 18 -65 -37 -80 l-36 -10 2 47 c2 25 3 47 4 49 3
5 57 1 67 -6z"/>
<path d="M3623 1798 c-27 -13 -25 4 -28 -226 l-2 -183 46 3 46 3 -1 125 -1
124 25 -49 c15 -28 39 -77 54 -110 45 -100 81 -123 126 -82 17 16 19 33 18
209 l-1 192 -38 1 c-21 1 -41 -3 -44 -8 -3 -6 -6 -59 -6 -119 1 -59 -1 -108
-3 -108 -2 0 -26 46 -53 103 -27 56 -53 107 -58 114 -13 17 -55 23 -80 11z"/>
<path d="M4320 1803 c-13 -3 -16 -30 -15 -189 0 -184 0 -186 24 -205 20 -17
37 -19 105 -17 l81 3 3 38 c3 36 2 37 -30 38 -18 1 -46 2 -63 3 l-30 1 -1 157
c0 87 -3 161 -7 165 -9 8 -43 11 -67 6z"/>
<path d="M1068 1313 c-16 -4 -30 -74 -18 -92 7 -12 58 -7 71 6 17 17 19 61 3
74 -8 6 -14 8 -14 4 0 -4 -6 -3 -12 2 -7 5 -20 8 -30 6z m42 -48 c0 -14 -4
-25 -10 -25 -5 0 -13 0 -17 0 -4 0 -8 11 -9 25 -1 18 4 25 18 25 13 0 18 -7
18 -25z"/>
<path d="M1203 1308 c-47 -22 -33 -98 18 -98 28 0 59 27 59 52 0 17 -29 52
-45 54 -5 1 -20 -3 -32 -8z m46 -37 c15 -27 -10 -47 -38 -31 -17 9 -19 15 -11
30 14 25 36 26 49 1z"/>
<path d="M1350 1312 c-18 -6 -34 -31 -36 -54 -3 -38 62 -64 74 -29 3 9 -1 11
-16 7 -15 -5 -22 -2 -27 13 -8 28 3 44 26 38 11 -3 19 0 19 8 0 16 -19 24 -40
17z"/>
<path d="M1573 1312 c-16 -10 -21 -94 -6 -99 7 -3 10 7 9 27 -1 17 3 34 8 37
6 3 8 3 4 -2 -4 -4 0 -21 8 -38 12 -23 18 -27 25 -16 5 8 9 22 9 31 0 9 4 19
9 22 4 3 7 -5 6 -18 -3 -25 10 -54 20 -44 4 3 3 27 0 52 -8 52 -28 61 -42 19
l-9 -26 -15 31 c-9 18 -20 28 -26 24z"/>
<path d="M1715 1312 c-3 -3 -5 -26 -5 -51 0 -44 1 -46 30 -47 17 -1 30 2 30 7
0 5 -4 9 -8 9 -5 0 -17 6 -27 14 -18 13 -18 14 8 9 33 -6 36 12 5 22 l-23 8
23 4 c12 2 22 8 22 13 0 9 -47 20 -55 12z"/>
<path d="M1816 1311 c-9 -14 -10 -90 -2 -99 11 -10 24 18 19 39 -8 29 13 23
28 -9 22 -44 43 -35 45 21 2 35 -1 47 -12 47 -8 0 -14 -6 -13 -12 5 -39 -3
-41 -30 -9 -18 22 -30 30 -35 22z"/>
<path d="M1968 1313 c-28 -4 -37 -18 -17 -25 6 -2 13 -15 14 -28 1 -14 3 -31
4 -37 0 -7 6 -13 11 -13 6 0 10 18 10 40 0 22 5 40 10 40 6 0 10 7 10 15 0 8
-3 14 -7 14 -5 -1 -20 -4 -35 -6z"/>
<path d="M2054 1307 c-13 -34 -9 -92 6 -95 13 -2 16 8 15 47 -1 52 -10 75 -21
48z"/>
<path d="M2119 1300 c-1 -11 -1 -30 -2 -43 -1 -24 9 -47 22 -47 4 0 6 15 4 33
l-4 32 29 -34 c16 -19 34 -31 39 -28 17 11 10 91 -8 95 -12 2 -15 -4 -12 -30
l4 -33 -17 26 c-9 14 -25 31 -35 38 -16 9 -19 8 -20 -9z"/>
<path d="M2290 1312 c-24 -9 -35 -26 -34 -51 3 -44 57 -66 88 -35 24 23 20 44
-9 44 -14 0 -25 -5 -25 -11 0 -6 7 -9 14 -6 10 4 13 1 9 -9 -3 -7 -14 -14 -24
-14 -23 0 -37 46 -19 63 7 7 10 7 7 2 -3 -6 4 -10 16 -10 12 1 23 5 25 10 5
12 -29 23 -48 17z"/>
<path d="M2437 1314 c-4 -4 -1 -17 7 -29 8 -12 16 -32 18 -45 1 -13 8 -25 15
-27 6 -2 10 4 8 14 -1 10 5 32 16 50 20 35 8 57 -13 23 l-13 -20 -15 20 c-9
12 -19 18 -23 14z"/>
<path d="M2560 1300 c-36 -36 -18 -80 36 -87 16 -3 28 4 39 21 22 33 12 62
-26 75 -25 9 -33 7 -49 -9z m58 -23 c7 -8 7 -17 -2 -30 -16 -21 -20 -21 -41
-1 -12 12 -13 19 -4 30 14 17 33 18 47 1z"/>
<path d="M2749 1304 c-1 -11 0 -27 1 -38 1 -10 -4 -23 -12 -27 -19 -12 -29
-11 -27 4 5 37 -2 67 -16 67 -11 0 -14 -9 -11 -39 5 -50 12 -61 39 -61 36 0
51 16 52 55 1 38 -24 75 -26 39z"/>
<path d="M2982 1311 c-5 -3 -10 -27 -10 -53 0 -37 3 -46 14 -41 9 3 13 12 10
20 -3 8 -2 12 2 10 13 -8 45 9 48 26 3 25 -41 52 -64 38z m38 -31 c0 -5 -4
-10 -9 -10 -6 0 -13 5 -16 10 -3 6 1 10 9 10 9 0 16 -4 16 -10z"/>
<path d="M3188 1309 c-6 -4 -7 -12 -4 -18 4 -6 11 -9 15 -6 5 2 7 -8 6 -24 -2
-29 9 -60 19 -50 3 2 6 23 7 46 2 23 6 41 10 40 4 -1 6 2 6 7 -2 11 -43 15
-59 5z"/>
<path d="M3482 1312 c-29 -3 -31 -5 -18 -15 9 -7 17 -27 19 -46 1 -19 7 -36
14 -38 7 -3 10 8 9 28 -1 17 4 38 12 46 19 19 5 29 -36 25z"/>
<path d="M3584 1302 c-32 -26 -35 -47 -10 -71 26 -25 44 -26 71 -5 27 20 26
44 -3 72 -28 26 -31 27 -58 4z m50 -20 c9 -14 -6 -52 -20 -52 -16 0 -33 30
-27 48 5 13 39 17 47 4z"/>
<path d="M3754 1311 c-2 -2 -4 -26 -4 -53 0 -33 4 -48 13 -48 8 0 13 10 13 23
-1 16 4 21 17 19 25 -4 21 15 -5 21 -21 6 -18 22 5 22 5 0 12 5 14 10 3 9 -44
15 -53 6z"/>
<path d="M3859 1310 c-18 -11 -19 -92 -1 -98 7 -2 12 5 12 15 1 16 2 16 13 3
14 -18 37 -24 37 -10 0 5 -8 13 -17 19 -16 9 -16 10 -2 16 9 3 16 15 15 27 -1
24 -35 40 -57 28z m31 -29 c0 -6 -4 -13 -10 -16 -5 -3 -10 1 -10 9 0 9 5 16
10 16 6 0 10 -4 10 -9z"/>
<path d="M3964 1312 c-14 -11 -16 -33 -4 -47 7 -9 8 -15 1 -19 -6 -4 -7 -13
-4 -22 6 -17 54 -16 60 2 2 7 -2 11 -9 10 -7 0 -14 4 -15 9 -2 6 2 11 7 11 24
3 24 6 0 16 l-25 11 25 6 c14 4 20 9 15 12 -22 13 -42 17 -51 11z"/>
<path d="M4085 1310 c-11 -4 -23 -6 -27 -3 -4 2 -6 -13 -4 -34 3 -21 5 -43 5
-48 1 -15 53 -13 59 3 2 7 -2 10 -11 7 -7 -3 -20 2 -28 11 -8 10 -9 15 -2 11
13 -8 43 1 43 13 0 5 -9 6 -20 3 -11 -3 -20 0 -20 6 0 6 6 11 14 11 17 0 30
16 19 23 -5 2 -17 1 -28 -3z"/>
<path d="M4175 1311 c-16 -5 -20 -15 -21 -48 0 -24 2 -43 5 -44 3 0 15 -2 25
-4 24 -5 52 9 59 29 15 39 -26 79 -68 67z m29 -27 c17 -7 22 -44 6 -44 -5 0
-13 0 -17 0 -11 0 -23 50 -13 50 5 0 15 -3 24 -6z"/>
<path d="M4313 1309 c-11 -4 -24 -13 -28 -19 -11 -18 5 -69 25 -75 20 -6 74 4
66 13 -3 3 -1 11 4 17 14 16 -6 62 -29 68 -9 2 -26 1 -38 -4z m47 -50 c0 -25
-32 -33 -47 -13 -8 12 -9 22 -2 35 8 16 13 17 29 6 11 -6 20 -19 20 -28z"/>
<path d="M1429 1308 c-6 -15 -5 -66 1 -78 10 -19 66 -25 76 -8 4 6 8 29 9 50
1 30 -2 38 -14 36 -12 -2 -15 -13 -13 -41 4 -37 -2 -44 -26 -28 -9 5 -12 20
-9 40 4 22 1 31 -9 31 -8 0 -14 -1 -15 -2z"/>
<path d="M2815 1260 c0 -33 4 -50 13 -50 6 0 12 10 12 23 1 21 1 22 13 2 12
-20 37 -32 37 -17 0 4 -6 14 -12 20 -10 10 -10 15 1 21 26 16 8 46 -29 49
l-36 3 1 -51z m45 13 c0 -13 -3 -13 -15 -3 -8 7 -12 16 -9 21 8 13 24 1 24
-18z"/>
<path d="M3080 1265 c-13 -47 -6 -73 12 -42 9 17 12 17 33 3 31 -20 38 -7 21
40 -20 59 -49 58 -66 -1z m48 -3 c2 -7 -3 -12 -12 -12 -9 0 -16 7 -16 16 0 17
22 14 28 -4z"/>
<path d="M3289 1303 c-3 -29 0 -85 5 -90 8 -9 17 1 20 23 3 23 36 28 37 6 1
-10 1 -21 0 -25 -1 -5 4 -7 11 -5 7 3 14 25 16 51 3 38 0 47 -13 47 -9 0 -15
-7 -13 -17 2 -12 -4 -18 -17 -18 -13 0 -20 7 -19 18 2 16 -25 26 -27 10z"/>
<path d="M4429 1298 c0 -7 -2 -30 -5 -50 -3 -21 0 -38 5 -38 13 0 24 37 16 52
-4 7 1 4 9 -6 9 -11 16 -27 16 -35 0 -12 3 -12 13 -2 6 6 12 17 12 23 0 6 5
13 11 15 7 2 10 -6 8 -22 -1 -16 2 -25 9 -22 7 2 12 9 11 15 -1 7 -2 28 -2 47
-2 29 -6 35 -24 35 -12 0 -18 -3 -15 -6 3 -4 1 -16 -5 -28 -12 -21 -12 -21
-18 4 -6 26 -39 41 -41 18z"/>
</g>
</svg>
