<?xml version="1.0" encoding="utf-8"?>
<svg version="1.1" xmlns="http://www.w3.org/2000/svg" xmlns:xlink="http://www.w3.org/1999/xlink" x="0px" y="0px"
	 viewBox="31 360.3 676.1 128.2" style="enable-background:new 31 360.3 676.1 128.2;" xml:space="preserve">
<path fill="#bf9d37" d="M535.4,406.4c-1.6-2-4-3.1-6.6-3.1c-2.8,0-5,1-6.6,2.9c-2.4,2.9-2.8,6.8-2.8,10.5h18.2C537.7,413.2,537.7,409.4,535.4,406.4
	L535.4,406.4z M99.4,453.5l-3.1-43.7c-0.3-4.6-0.5-9.1-0.6-13.7c-0.8,4.3-1.9,8.4-3.1,12.6l-12.9,44.8h-14l-11.7-43
	c-1.3-4.8-2.5-9.6-3.3-14.5c-0.1,4.9-0.3,9.8-0.6,14.7l-2.8,42.7H31l7.7-81.7h21.1l10.7,41c1.2,4.3,1.7,8.7,2.8,12.9
	c0.8-4.5,2.1-8.8,2.9-13.3l11.1-40.6h20.9l7.3,81.8H99.4L99.4,453.5z M142.6,428.3c0,8.5,3.8,14.8,12.9,14.8c5.7,0,10.7-2.5,15.1-6
	l6.1,9.4c-6.4,5.3-14.4,8.4-22.7,8.4c-11.9,0-21.5-6.2-26.1-17.2c-3.3-8-3.4-20.3-0.3-28.5c4.1-10.8,13-17.4,24.4-17.4
	c21.8,0,25.4,19.1,25.4,36.5H142.6L142.6,428.3z M160.8,411.1c-0.5-4.5-4-7.8-8.5-7.8c-4.8,0-8.2,3.5-8.9,8.1
	c-0.3,1.8-0.5,3.6-0.5,5.4h18.2C161.1,414.9,161,413,160.8,411.1L160.8,411.1z M218.7,452.2c-7.7,3.6-19.7,4.4-26.3-1.9
	c-3.8-3.7-3.9-8.6-3.9-13.5v-32.7h-6v-10.9h6c0-4.7-0.2-9.5,0.6-14.2l16-4c-0.5,6.1-0.9,12.1-0.9,18.2h14.1l-4,10.8h-10.1v30.2
	c0,4.8,0.4,9.6,6.2,9.6c1.9,0,4.5-0.3,6.2-1.2L218.7,452.2L218.7,452.2z M268.4,456.6c-3.5-1.6-6.6-3.9-8.5-7.3
	c-4.6,4.6-9.1,6.5-15.8,6.5c-12.1,0-20.7-6.5-20.7-18.8c0-3.9,0.8-7.4,2.4-10.4c5.1-9.6,20.6-11.4,30.1-10.2v-2.5
	c0-5.4-0.9-9.1-6.9-9.1c-6.3,0-12.6,3.2-17.5,6.9l-6.8-11.3c7.6-4.8,16.7-8.6,25.8-8.6c15.4,0,20.6,7.7,20.6,21.4v20.2
	c0,5.8,0.4,9.7,5.7,13.4L268.4,456.6L268.4,456.6z M243,429.4c-2.1,1.6-2.9,4.6-2.7,7.5c0.3,3.9,2.7,7.4,6.9,7.4
	c3.2,0,6.1-1.7,8.2-4.1l0.2-13C251.9,427.1,246.1,426.9,243,429.4L243,429.4z M337.8,385.2h-19.5v68.3h-16.7v-68.3h-20v-13.5h59
	L337.8,385.2L337.8,385.2z M371.7,407l4.4-13.9c-7.5-3.9-15.4,1.3-20,7.3c-0.2-3-0.9-6-2.5-8.6l-14.1,3.8c2,5.6,2.2,11.8,2.2,17.7
	v40.2h15.8v-42.6C360.8,407,366.9,403.9,371.7,407L371.7,407z M422.2,456.6c-3.5-1.6-6.6-3.9-8.5-7.3c-4.7,4.7-9.3,6.5-15.8,6.5
	c-8.3,0-15.1-2.6-19-10.1c-1.2-2.3-1.8-5.2-1.8-8.7c0-7.9,3.2-14.1,10.5-17.5c6.3-2.9,15.2-3.9,22-3.1c0-5.4,0.4-11.5-6.9-11.5
	c-6.3,0-12.6,3.2-17.5,6.9l-6.7-11.4c7.6-4.8,16.7-8.6,25.8-8.6c15.1,0,20.6,7.2,20.6,21.4v20.2c0,6,0.5,9.7,5.7,13.4L422.2,456.6
	L422.2,456.6z M396.8,429.4c-2.1,1.6-2.7,4.1-2.7,6.6c0,4.2,2.3,8.2,6.9,8.2c3.2,0,6.1-1.7,8.2-4.1l0.2-13
	C405.7,427.1,399.9,426.9,396.8,429.4L396.8,429.4z M477.4,453.5c-0.6-1.1-0.9-2.3-0.9-3.5c-4.1,3.3-8.6,4.9-13.9,4.9
	c-7.4,0-14-2.8-18.6-8.7c-5-6.1-6.5-14.1-6.5-21.8c0-8.2,1.7-17.2,6.9-23.8c4.6-5.7,11.6-8.8,18.9-8.8c4,0,7.9,1,10.7,4
	c-0.5-2.9-0.5-5.8-0.5-8.7v-20.7l15.5,2.5v62.6c0,7.1-0.5,15.3,2.2,22H477.4L477.4,453.5z M473.9,408.9c-2.5-2.3-5.4-3.9-8.8-3.9
	c-9.4,0-9.9,12.8-9.9,19.5c0,7.3,0.4,17.2,10.4,17.2c3.3,0,6.2-1.3,8.4-3.9v-28.9H473.9z M595.2,407c-4.8-3.1-10.9,0-14.2,3.9v42.6
	h-15.8v-40.3c0-5.8-0.3-12.1-2.2-17.7l14.1-3.8c1.6,2.6,2.3,5.6,2.5,8.6c4.6-6,12.5-11.2,20-7.3L595.2,407L595.2,407z M519.2,428.3
	c0,8.5,3.8,14.8,12.9,14.8c5.6,0,10.8-2.5,15.1-6l6.1,9.4c-6.4,5.3-14.4,8.4-22.7,8.4c-7.6,0-15-2.6-20.4-8
	c-6.1-6.4-8.1-15.1-8.1-23.7c0-5.7,0.7-10.4,2.1-14c4.1-10.7,12.9-17.4,24.4-17.4c16,0,24.1,11.4,25.2,26.9c0.2,3.2,0.2,6.4,0.2,9.6
	C554,428.3,519.2,428.3,519.2,428.3z"/>
<path fill="#F27D3A" d="M694.4,385.2v42.4v3.2c0,1.1,0,1.6-0.5,2.6c1.6,0,2.6,0,3.7,0h2.1h7.4v20.7h-7.9c-1.1,0-2.1,0-3.2,0
	s-2.1,0-2.1,0c0,1.1,0.5,2.1,0.5,3.2s0,2.1,0,3.2v25.4l-22.8,2.6v-30.2v-2.6c0-0.5,0-1.6,0.5-2.6c-1.6,0.5-2.6,0.5-3.7,0.5h-2.1
	h-47.7v-16.4l34.4-76.8H678l-26,58.3c-1.1,2.1-1.6,3.7-2.6,5.3c-0.5,1.1-1.1,2.1-1.6,3.7c-0.5,1.1-1.1,2.1-1.6,3.2s-1.6,2.1-2.1,3.2
	c1.1,0,1.1-0.5,1.6-0.5h0.5h1.6h20.1h2.1c0.5,0,1.6,0,2.6,0c0-0.5,0-1.1,0-1.6v-1.6c0-4.8,0-7.9,0.5-11.1c0-2.6,0.5-5.3,1.1-7.9
	l2.1-21.2L694.4,385.2z"/>
</svg>
